<?xml version="1.0" encoding="iso-8859-1"?>
<!DOCTYPE svg PUBLIC "-//W3C//DTD SVG 1.1//EN" "http://www.w3.org/Graphics/SVG/1.1/DTD/svg11.dtd">
<svg fill="#000000" version="1.1" id="Capa_1" xmlns="http://www.w3.org/2000/svg" xmlns:xlink="http://www.w3.org/1999/xlink" x="0px" y="0px"
	 width="52.666px" height="52.666px" viewBox="0 0 52.666 52.666" style="enable-background:new 0 0 52.666 52.666;"
	 xml:space="preserve">
<g>
	<g>
		<path d="M26.332,0C11.789,0,0,11.79,0,26.333s11.789,26.333,26.332,26.333s26.334-11.79,26.334-26.333S40.875,0,26.332,0z
			 M26.332,45.999c-10.861,0-19.666-8.806-19.666-19.666c0-10.861,8.805-19.666,19.666-19.666C37.193,6.667,46,15.472,46,26.333
			C46,37.193,37.193,45.999,26.332,45.999z"/>
		<path d="M26.333,11.75c-8.054,0-14.583,6.529-14.583,14.583c0,8.054,6.529,14.583,14.583,14.583
			c8.054,0,14.583-6.529,14.583-14.583C40.916,18.279,34.387,11.75,26.333,11.75z M26.333,37.225
			c-6.016,0-10.892-4.877-10.892-10.892c0-6.015,4.876-10.891,10.892-10.891c6.015,0,10.892,4.876,10.892,10.891
			C37.225,32.348,32.348,37.225,26.333,37.225z"/>
		<circle cx="26.333" cy="26.333" r="4.25"/>
	</g>
</g>
<g>
</g>
<g>
</g>
<g>
</g>
<g>
</g>
<g>
</g>
<g>
</g>
<g>
</g>
<g>
</g>
<g>
</g>
<g>
</g>
<g>
</g>
<g>
</g>
<g>
</g>
<g>
</g>
<g>
</g>
</svg>
